<?xml version="1.0" standalone="no"?>
<!DOCTYPE svg PUBLIC "-//W3C//DTD SVG 20010904//EN"
 "http://www.w3.org/TR/2001/REC-SVG-20010904/DTD/svg10.dtd">
<svg version="1.0" xmlns="http://www.w3.org/2000/svg"
 width="70.000000pt" height="79.000000pt" viewBox="0 0 70.000000 79.000000"
 preserveAspectRatio="xMidYMid meet">
<metadata>
Created by potrace 1.16, written by Peter Selinger 2001-2019
</metadata>
<g transform="translate(0.000000,79.000000) scale(0.100000,-0.100000)"
fill="#000000" stroke="none">
<path d="M315 773 c-16 -8 -61 -33 -98 -55 l-68 -39 59 -32 c196 -107 204
-114 159 -134 -21 -10 -39 -2 -142 57 -65 38 -122 75 -126 82 -5 7 -9 8 -9 2
0 -6 -16 -18 -35 -27 -19 -9 -35 -20 -35 -25 0 -9 311 -182 329 -182 18 0 201
99 201 109 0 4 -48 35 -107 69 -151 86 -142 78 -118 96 11 9 25 16 31 16 11 0
226 -121 250 -141 11 -9 74 18 74 33 0 6 -291 172 -320 182 -8 3 -28 -2 -45
-11z"/>
<path d="M0 385 l0 -186 26 -24 c15 -14 31 -25 35 -25 5 0 9 70 9 155 0 162 3
171 42 141 15 -11 17 -35 19 -172 l1 -159 26 -17 c15 -10 32 -18 37 -18 6 0 9
57 8 155 -1 85 1 155 5 155 4 0 16 -7 26 -15 17 -13 19 -27 17 -157 -1 -79 1
-151 4 -160 8 -19 70 -59 79 -51 3 4 6 91 6 194 l0 188 -28 19 c-44 30 -289
162 -301 162 -8 0 -11 -56 -11 -185z"/>
</g>
</svg>
